<svg width="64" height="64" viewBox="0 0 64 64" fill="none" xmlns="http://www.w3.org/2000/svg">
<rect width="64" height="64" rx="32" fill="white"/>
<g filter="url(#filter0_i_2_8)">
<path d="M47.5524 33.0922C48.0151 34.3634 47.3596 35.7691 46.0884 36.2318C45.255 36.5351 44.5958 35.6954 44.5559 34.8094L44.4953 33.4619C44.4462 32.3707 45.1992 31.2482 46.2051 31.674C46.8096 31.93 47.3102 32.4267 47.5524 33.0922Z" fill="url(#paint0_linear_2_8)"/>
</g>
<path d="M47.5524 33.0922C48.0151 34.3634 47.3596 35.7691 46.0884 36.2318C45.255 36.5351 44.5958 35.6954 44.5559 34.8094L44.4953 33.4619C44.4462 32.3707 45.1992 31.2482 46.2051 31.674C46.8096 31.93 47.3102 32.4267 47.5524 33.0922Z" stroke="url(#paint1_linear_2_8)"/>
<g filter="url(#filter1_i_2_8)">
<path d="M17.6393 43.9795C18.102 45.2508 19.5077 45.9062 20.7789 45.4435C21.6123 45.1402 21.5775 44.0732 21.0386 43.3689L20.2189 42.2977C19.5551 41.4302 18.2567 41.0543 17.7599 42.0271C17.4613 42.6117 17.3971 43.314 17.6393 43.9795Z" fill="url(#paint2_linear_2_8)"/>
</g>
<path d="M17.6393 43.9795C18.102 45.2508 19.5077 45.9062 20.7789 45.4435C21.6123 45.1402 21.5775 44.0732 21.0386 43.3689L20.2189 42.2977C19.5551 41.4302 18.2567 41.0543 17.7599 42.0271C17.4613 42.6117 17.3971 43.314 17.6393 43.9795Z" stroke="url(#paint3_linear_2_8)"/>
<g filter="url(#filter2_i_2_8)">
<circle cx="31.5187" cy="35.5761" r="13.2975" transform="rotate(-20 31.5187 35.5761)" fill="url(#paint4_linear_2_8)"/>
</g>
<circle cx="31.5187" cy="35.5761" r="13.2975" transform="rotate(-20 31.5187 35.5761)" stroke="url(#paint5_linear_2_8)"/>
<g filter="url(#filter3_i_2_8)">
<path d="M35.5357 19.5873C37.8969 20.3219 40.0348 21.6105 41.7783 23.3314C42.6693 24.2109 42.3125 25.6506 41.1776 26.179C38.3181 27.5105 33.2239 29.8116 29.5094 31.0941C28.5431 31.4277 27.4821 31.7573 26.3904 32.0737C25.7909 32.2474 25.1458 32.0692 24.7144 31.6183L24.5869 31.4849C23.6824 30.5395 22.0871 31.0216 21.8577 32.3098C21.7471 32.9312 21.2809 33.43 20.6674 33.5782C19.6348 33.8277 18.6891 34.0464 17.9002 34.2244C16.6867 34.4982 15.5305 33.587 15.687 32.3529C15.9961 29.9146 16.8863 27.5735 18.2971 25.5329C20.1625 22.8349 22.8408 20.8032 25.9416 19.7337C29.0424 18.6642 32.4037 18.6129 35.5357 19.5873Z" fill="url(#paint6_linear_2_8)"/>
</g>
<path d="M35.5357 19.5873C37.8969 20.3219 40.0348 21.6105 41.7783 23.3314C42.6693 24.2109 42.3125 25.6506 41.1776 26.179C38.3181 27.5105 33.2239 29.8116 29.5094 31.0941C28.5431 31.4277 27.4821 31.7573 26.3904 32.0737C25.7909 32.2474 25.1458 32.0692 24.7144 31.6183L24.5869 31.4849C23.6824 30.5395 22.0871 31.0216 21.8577 32.3098C21.7471 32.9312 21.2809 33.43 20.6674 33.5782C19.6348 33.8277 18.6891 34.0464 17.9002 34.2244C16.6867 34.4982 15.5305 33.587 15.687 32.3529C15.9961 29.9146 16.8863 27.5735 18.2971 25.5329C20.1625 22.8349 22.8408 20.8032 25.9416 19.7337C29.0424 18.6642 32.4037 18.6129 35.5357 19.5873Z" stroke="url(#paint7_linear_2_8)"/>
<path d="M38.6318 36.7331C39.636 36.3677 40.1538 35.2573 39.7883 34.2531C39.4228 33.2489 38.3124 32.7312 37.3082 33.0967C36.304 33.4622 35.7863 34.5725 36.1518 35.5767C36.5173 36.5809 37.6276 37.0986 38.6318 36.7331Z" fill="#FF8A35"/>
<path d="M27.7223 40.7039C28.7265 40.3384 29.2443 39.228 28.8788 38.2238C28.5133 37.2196 27.403 36.7019 26.3988 37.0674C25.3946 37.4329 24.8768 38.5432 25.2423 39.5474C25.6078 40.5516 26.7182 41.0693 27.7223 40.7039Z" fill="#FF8A35"/>
<path d="M44.6732 15.7513L42.9202 17.0243" stroke="#CB88FF" stroke-width="2.8" stroke-linecap="round"/>
<path d="M40.8798 11.7513L39.9202 15.2493" stroke="#4CD4FF" stroke-width="2.8" stroke-linecap="round"/>
<defs>
<filter id="filter0_i_2_8" x="41.993" y="29.0816" width="6.20789" height="7.71391" filterUnits="userSpaceOnUse" color-interpolation-filters="sRGB">
<feFlood flood-opacity="0" result="BackgroundImageFix"/>
<feBlend mode="normal" in="SourceGraphic" in2="BackgroundImageFix" result="shape"/>
<feColorMatrix in="SourceAlpha" type="matrix" values="0 0 0 0 0 0 0 0 0 0 0 0 0 0 0 0 0 0 127 0" result="hardAlpha"/>
<feOffset dx="-2" dy="-2"/>
<feGaussianBlur stdDeviation="4.5"/>
<feComposite in2="hardAlpha" operator="arithmetic" k2="-1" k3="1"/>
<feColorMatrix type="matrix" values="0 0 0 0 1 0 0 0 0 0.97125 0 0 0 0 0.7125 0 0 0 1 0"/>
<feBlend mode="normal" in2="shape" result="effect1_innerShadow_2_8"/>
</filter>
<filter id="filter1_i_2_8" x="14.9909" y="38.9516" width="6.93594" height="7.14047" filterUnits="userSpaceOnUse" color-interpolation-filters="sRGB">
<feFlood flood-opacity="0" result="BackgroundImageFix"/>
<feBlend mode="normal" in="SourceGraphic" in2="BackgroundImageFix" result="shape"/>
<feColorMatrix in="SourceAlpha" type="matrix" values="0 0 0 0 0 0 0 0 0 0 0 0 0 0 0 0 0 0 127 0" result="hardAlpha"/>
<feOffset dx="-2" dy="-2"/>
<feGaussianBlur stdDeviation="4.5"/>
<feComposite in2="hardAlpha" operator="arithmetic" k2="-1" k3="1"/>
<feColorMatrix type="matrix" values="0 0 0 0 1 0 0 0 0 0.97125 0 0 0 0 0.7125 0 0 0 1 0"/>
<feBlend mode="normal" in2="shape" result="effect1_innerShadow_2_8"/>
</filter>
<filter id="filter2_i_2_8" x="15.7174" y="19.7748" width="29.6025" height="29.6025" filterUnits="userSpaceOnUse" color-interpolation-filters="sRGB">
<feFlood flood-opacity="0" result="BackgroundImageFix"/>
<feBlend mode="normal" in="SourceGraphic" in2="BackgroundImageFix" result="shape"/>
<feColorMatrix in="SourceAlpha" type="matrix" values="0 0 0 0 0 0 0 0 0 0 0 0 0 0 0 0 0 0 127 0" result="hardAlpha"/>
<feOffset dx="-2" dy="-2"/>
<feGaussianBlur stdDeviation="4.5"/>
<feComposite in2="hardAlpha" operator="arithmetic" k2="-1" k3="1"/>
<feColorMatrix type="matrix" values="0 0 0 0 1 0 0 0 0 0.97125 0 0 0 0 0.7125 0 0 0 1 0"/>
<feBlend mode="normal" in2="shape" result="effect1_innerShadow_2_8"/>
</filter>
<filter id="filter3_i_2_8" x="14.1721" y="16.3923" width="28.61" height="18.3798" filterUnits="userSpaceOnUse" color-interpolation-filters="sRGB">
<feFlood flood-opacity="0" result="BackgroundImageFix"/>
<feBlend mode="normal" in="SourceGraphic" in2="BackgroundImageFix" result="shape"/>
<feColorMatrix in="SourceAlpha" type="matrix" values="0 0 0 0 0 0 0 0 0 0 0 0 0 0 0 0 0 0 127 0" result="hardAlpha"/>
<feOffset dx="-1" dy="-2"/>
<feGaussianBlur stdDeviation="2.5"/>
<feComposite in2="hardAlpha" operator="arithmetic" k2="-1" k3="1"/>
<feColorMatrix type="matrix" values="0 0 0 0 1 0 0 0 0 0.93675 0 0 0 0 0.7125 0 0 0 1 0"/>
<feBlend mode="normal" in2="shape" result="effect1_innerShadow_2_8"/>
</filter>
<linearGradient id="paint0_linear_2_8" x1="44.906" y1="31.4486" x2="46.5816" y2="36.0523" gradientUnits="userSpaceOnUse">
<stop stop-color="#FFF84D"/>
<stop offset="1" stop-color="#FFA24D"/>
</linearGradient>
<linearGradient id="paint1_linear_2_8" x1="44.906" y1="31.4486" x2="46.5816" y2="36.0523" gradientUnits="userSpaceOnUse">
<stop stop-color="#F4E23D"/>
<stop offset="1" stop-color="#E7BD2B"/>
</linearGradient>
<linearGradient id="paint2_linear_2_8" x1="18.6101" y1="41.0194" x2="20.2857" y2="45.623" gradientUnits="userSpaceOnUse">
<stop stop-color="#FFF84D"/>
<stop offset="1" stop-color="#FFA24D"/>
</linearGradient>
<linearGradient id="paint3_linear_2_8" x1="18.6101" y1="41.0194" x2="20.2857" y2="45.623" gradientUnits="userSpaceOnUse">
<stop stop-color="#F4E23D"/>
<stop offset="1" stop-color="#E7BD2B"/>
</linearGradient>
<linearGradient id="paint4_linear_2_8" x1="31.5187" y1="22.2786" x2="31.5187" y2="48.8736" gradientUnits="userSpaceOnUse">
<stop stop-color="#FFF84D"/>
<stop offset="1" stop-color="#FFA24D"/>
</linearGradient>
<linearGradient id="paint5_linear_2_8" x1="31.5187" y1="22.2786" x2="31.5187" y2="48.8736" gradientUnits="userSpaceOnUse">
<stop stop-color="#F4E23D"/>
<stop offset="1" stop-color="#E7BD2B"/>
</linearGradient>
<linearGradient id="paint6_linear_2_8" x1="25.7689" y1="19.7942" x2="31.1977" y2="34.7097" gradientUnits="userSpaceOnUse">
<stop stop-color="#FFCE70"/>
<stop offset="1" stop-color="#FF4D4D"/>
</linearGradient>
<linearGradient id="paint7_linear_2_8" x1="25.7689" y1="19.7942" x2="31.1977" y2="34.7097" gradientUnits="userSpaceOnUse">
<stop stop-color="#F4533D"/>
<stop offset="1" stop-color="#E7C92B"/>
</linearGradient>
</defs>
</svg>
